<mxfile host="Electron" modified="2024-06-03T02:09:29.823Z" agent="Mozilla/5.0 (Windows NT 10.0; Win64; x64) AppleWebKit/537.36 (KHTML, like Gecko) draw.io/22.0.3 Chrome/114.0.5735.289 Electron/25.8.4 Safari/537.36" etag="ReDogujZ09vlvHtNA2do" version="22.0.3" type="device">
  <diagram id="C5RBs43oDa-KdzZeNtuy" name="Page-1">
    <mxGraphModel dx="1417" dy="828" grid="1" gridSize="10" guides="1" tooltips="1" connect="1" arrows="1" fold="1" page="1" pageScale="1" pageWidth="827" pageHeight="1169" math="0" shadow="0">
      <root>
        <mxCell id="WIyWlLk6GJQsqaUBKTNV-0" />
        <mxCell id="WIyWlLk6GJQsqaUBKTNV-1" parent="WIyWlLk6GJQsqaUBKTNV-0" />
        <mxCell id="dE-x_5Mx7f9irVfnzfd8-1" value="EmployeeEnter" style="shape=table;startSize=30;container=1;collapsible=0;childLayout=tableLayout;fixedRows=1;rowLines=0;fontStyle=0;strokeColor=default;fontSize=14;" parent="WIyWlLk6GJQsqaUBKTNV-1" vertex="1">
          <mxGeometry x="60" y="530" width="280.0000000000001" height="120" as="geometry" />
        </mxCell>
        <mxCell id="dE-x_5Mx7f9irVfnzfd8-2" value="" style="shape=tableRow;horizontal=0;startSize=0;swimlaneHead=0;swimlaneBody=0;top=0;left=0;bottom=0;right=0;collapsible=0;dropTarget=0;fillColor=none;points=[[0,0.5],[1,0.5]];portConstraint=eastwest;strokeColor=inherit;fontSize=16;" parent="dE-x_5Mx7f9irVfnzfd8-1" vertex="1">
          <mxGeometry y="30" width="280.0000000000001" height="30" as="geometry" />
        </mxCell>
        <mxCell id="dE-x_5Mx7f9irVfnzfd8-3" value="PK FK" style="shape=partialRectangle;html=1;whiteSpace=wrap;connectable=0;fillColor=none;top=0;left=0;bottom=0;right=0;overflow=hidden;pointerEvents=1;strokeColor=inherit;fontSize=14;" parent="dE-x_5Mx7f9irVfnzfd8-2" vertex="1">
          <mxGeometry width="64" height="30" as="geometry">
            <mxRectangle width="64" height="30" as="alternateBounds" />
          </mxGeometry>
        </mxCell>
        <mxCell id="dE-x_5Mx7f9irVfnzfd8-4" value="EmployeeID int NOT NULL" style="shape=partialRectangle;html=1;whiteSpace=wrap;connectable=0;fillColor=none;top=0;left=0;bottom=0;right=0;align=left;spacingLeft=6;overflow=hidden;strokeColor=inherit;fontSize=14;" parent="dE-x_5Mx7f9irVfnzfd8-2" vertex="1">
          <mxGeometry x="64" width="216" height="30" as="geometry">
            <mxRectangle width="216" height="30" as="alternateBounds" />
          </mxGeometry>
        </mxCell>
        <mxCell id="dE-x_5Mx7f9irVfnzfd8-5" value="" style="shape=tableRow;horizontal=0;startSize=0;swimlaneHead=0;swimlaneBody=0;top=0;left=0;bottom=0;right=0;collapsible=0;dropTarget=0;fillColor=none;points=[[0,0.5],[1,0.5]];portConstraint=eastwest;strokeColor=inherit;fontSize=16;" parent="dE-x_5Mx7f9irVfnzfd8-1" vertex="1">
          <mxGeometry y="60" width="280.0000000000001" height="30" as="geometry" />
        </mxCell>
        <mxCell id="dE-x_5Mx7f9irVfnzfd8-6" value="PK" style="shape=partialRectangle;html=1;whiteSpace=wrap;connectable=0;fillColor=none;top=0;left=0;bottom=0;right=0;overflow=hidden;strokeColor=inherit;fontSize=14;" parent="dE-x_5Mx7f9irVfnzfd8-5" vertex="1">
          <mxGeometry width="64" height="30" as="geometry">
            <mxRectangle width="64" height="30" as="alternateBounds" />
          </mxGeometry>
        </mxCell>
        <mxCell id="dE-x_5Mx7f9irVfnzfd8-7" value="EnterDate datetime NOT NULL" style="shape=partialRectangle;html=1;whiteSpace=wrap;connectable=0;fillColor=none;top=0;left=0;bottom=0;right=0;align=left;spacingLeft=6;overflow=hidden;strokeColor=inherit;fontSize=14;" parent="dE-x_5Mx7f9irVfnzfd8-5" vertex="1">
          <mxGeometry x="64" width="216" height="30" as="geometry">
            <mxRectangle width="216" height="30" as="alternateBounds" />
          </mxGeometry>
        </mxCell>
        <mxCell id="dE-x_5Mx7f9irVfnzfd8-8" value="" style="shape=tableRow;horizontal=0;startSize=0;swimlaneHead=0;swimlaneBody=0;top=0;left=0;bottom=0;right=0;collapsible=0;dropTarget=0;fillColor=none;points=[[0,0.5],[1,0.5]];portConstraint=eastwest;strokeColor=inherit;fontSize=16;" parent="dE-x_5Mx7f9irVfnzfd8-1" vertex="1">
          <mxGeometry y="90" width="280.0000000000001" height="30" as="geometry" />
        </mxCell>
        <mxCell id="dE-x_5Mx7f9irVfnzfd8-9" value="" style="shape=partialRectangle;html=1;whiteSpace=wrap;connectable=0;fillColor=none;top=0;left=0;bottom=0;right=0;overflow=hidden;strokeColor=inherit;fontSize=16;" parent="dE-x_5Mx7f9irVfnzfd8-8" vertex="1">
          <mxGeometry width="64" height="30" as="geometry">
            <mxRectangle width="64" height="30" as="alternateBounds" />
          </mxGeometry>
        </mxCell>
        <mxCell id="dE-x_5Mx7f9irVfnzfd8-10" value="IsSuccess bit NOT NULL" style="shape=partialRectangle;html=1;whiteSpace=wrap;connectable=0;fillColor=none;top=0;left=0;bottom=0;right=0;align=left;spacingLeft=6;overflow=hidden;strokeColor=inherit;fontSize=14;" parent="dE-x_5Mx7f9irVfnzfd8-8" vertex="1">
          <mxGeometry x="64" width="216" height="30" as="geometry">
            <mxRectangle width="216" height="30" as="alternateBounds" />
          </mxGeometry>
        </mxCell>
        <mxCell id="dE-x_5Mx7f9irVfnzfd8-11" value="Customer" style="shape=table;startSize=30;container=1;collapsible=0;childLayout=tableLayout;fixedRows=1;rowLines=0;fontStyle=0;strokeColor=default;fontSize=14;" parent="WIyWlLk6GJQsqaUBKTNV-1" vertex="1">
          <mxGeometry x="440" y="40" width="340" height="300" as="geometry" />
        </mxCell>
        <mxCell id="dE-x_5Mx7f9irVfnzfd8-12" value="" style="shape=tableRow;horizontal=0;startSize=0;swimlaneHead=0;swimlaneBody=0;top=0;left=0;bottom=0;right=0;collapsible=0;dropTarget=0;fillColor=none;points=[[0,0.5],[1,0.5]];portConstraint=eastwest;strokeColor=inherit;fontSize=16;" parent="dE-x_5Mx7f9irVfnzfd8-11" vertex="1">
          <mxGeometry y="30" width="340" height="30" as="geometry" />
        </mxCell>
        <mxCell id="dE-x_5Mx7f9irVfnzfd8-13" value="PK" style="shape=partialRectangle;html=1;whiteSpace=wrap;connectable=0;fillColor=none;top=0;left=0;bottom=0;right=0;overflow=hidden;pointerEvents=1;strokeColor=inherit;fontSize=14;" parent="dE-x_5Mx7f9irVfnzfd8-12" vertex="1">
          <mxGeometry width="64" height="30" as="geometry">
            <mxRectangle width="64" height="30" as="alternateBounds" />
          </mxGeometry>
        </mxCell>
        <mxCell id="dE-x_5Mx7f9irVfnzfd8-14" value="ID int NOT NULL" style="shape=partialRectangle;html=1;whiteSpace=wrap;connectable=0;fillColor=none;top=0;left=0;bottom=0;right=0;align=left;spacingLeft=6;overflow=hidden;strokeColor=inherit;fontSize=14;" parent="dE-x_5Mx7f9irVfnzfd8-12" vertex="1">
          <mxGeometry x="64" width="276" height="30" as="geometry">
            <mxRectangle width="276" height="30" as="alternateBounds" />
          </mxGeometry>
        </mxCell>
        <mxCell id="dE-x_5Mx7f9irVfnzfd8-15" value="" style="shape=tableRow;horizontal=0;startSize=0;swimlaneHead=0;swimlaneBody=0;top=0;left=0;bottom=0;right=0;collapsible=0;dropTarget=0;fillColor=none;points=[[0,0.5],[1,0.5]];portConstraint=eastwest;strokeColor=inherit;fontSize=16;" parent="dE-x_5Mx7f9irVfnzfd8-11" vertex="1">
          <mxGeometry y="60" width="340" height="30" as="geometry" />
        </mxCell>
        <mxCell id="dE-x_5Mx7f9irVfnzfd8-16" value="" style="shape=partialRectangle;html=1;whiteSpace=wrap;connectable=0;fillColor=none;top=0;left=0;bottom=0;right=0;overflow=hidden;strokeColor=inherit;fontSize=14;" parent="dE-x_5Mx7f9irVfnzfd8-15" vertex="1">
          <mxGeometry width="64" height="30" as="geometry">
            <mxRectangle width="64" height="30" as="alternateBounds" />
          </mxGeometry>
        </mxCell>
        <mxCell id="dE-x_5Mx7f9irVfnzfd8-17" value="FirstName nvarchar(20) NOT NULL" style="shape=partialRectangle;html=1;whiteSpace=wrap;connectable=0;fillColor=none;top=0;left=0;bottom=0;right=0;align=left;spacingLeft=6;overflow=hidden;strokeColor=inherit;fontSize=14;" parent="dE-x_5Mx7f9irVfnzfd8-15" vertex="1">
          <mxGeometry x="64" width="276" height="30" as="geometry">
            <mxRectangle width="276" height="30" as="alternateBounds" />
          </mxGeometry>
        </mxCell>
        <mxCell id="dE-x_5Mx7f9irVfnzfd8-18" value="" style="shape=tableRow;horizontal=0;startSize=0;swimlaneHead=0;swimlaneBody=0;top=0;left=0;bottom=0;right=0;collapsible=0;dropTarget=0;fillColor=none;points=[[0,0.5],[1,0.5]];portConstraint=eastwest;strokeColor=inherit;fontSize=16;" parent="dE-x_5Mx7f9irVfnzfd8-11" vertex="1">
          <mxGeometry y="90" width="340" height="30" as="geometry" />
        </mxCell>
        <mxCell id="dE-x_5Mx7f9irVfnzfd8-19" value="" style="shape=partialRectangle;html=1;whiteSpace=wrap;connectable=0;fillColor=none;top=0;left=0;bottom=0;right=0;overflow=hidden;strokeColor=inherit;fontSize=16;" parent="dE-x_5Mx7f9irVfnzfd8-18" vertex="1">
          <mxGeometry width="64" height="30" as="geometry">
            <mxRectangle width="64" height="30" as="alternateBounds" />
          </mxGeometry>
        </mxCell>
        <mxCell id="dE-x_5Mx7f9irVfnzfd8-20" value="LastName nvarchar(20) NOT NULL" style="shape=partialRectangle;html=1;whiteSpace=wrap;connectable=0;fillColor=none;top=0;left=0;bottom=0;right=0;align=left;spacingLeft=6;overflow=hidden;strokeColor=inherit;fontSize=14;" parent="dE-x_5Mx7f9irVfnzfd8-18" vertex="1">
          <mxGeometry x="64" width="276" height="30" as="geometry">
            <mxRectangle width="276" height="30" as="alternateBounds" />
          </mxGeometry>
        </mxCell>
        <mxCell id="dE-x_5Mx7f9irVfnzfd8-83" style="shape=tableRow;horizontal=0;startSize=0;swimlaneHead=0;swimlaneBody=0;top=0;left=0;bottom=0;right=0;collapsible=0;dropTarget=0;fillColor=none;points=[[0,0.5],[1,0.5]];portConstraint=eastwest;strokeColor=inherit;fontSize=16;" parent="dE-x_5Mx7f9irVfnzfd8-11" vertex="1">
          <mxGeometry y="120" width="340" height="30" as="geometry" />
        </mxCell>
        <mxCell id="dE-x_5Mx7f9irVfnzfd8-84" style="shape=partialRectangle;html=1;whiteSpace=wrap;connectable=0;fillColor=none;top=0;left=0;bottom=0;right=0;overflow=hidden;strokeColor=inherit;fontSize=16;" parent="dE-x_5Mx7f9irVfnzfd8-83" vertex="1">
          <mxGeometry width="64" height="30" as="geometry">
            <mxRectangle width="64" height="30" as="alternateBounds" />
          </mxGeometry>
        </mxCell>
        <mxCell id="dE-x_5Mx7f9irVfnzfd8-85" value="MiddleName nvarchar(20) NULL" style="shape=partialRectangle;html=1;whiteSpace=wrap;connectable=0;fillColor=none;top=0;left=0;bottom=0;right=0;align=left;spacingLeft=6;overflow=hidden;strokeColor=inherit;fontSize=14;" parent="dE-x_5Mx7f9irVfnzfd8-83" vertex="1">
          <mxGeometry x="64" width="276" height="30" as="geometry">
            <mxRectangle width="276" height="30" as="alternateBounds" />
          </mxGeometry>
        </mxCell>
        <mxCell id="dE-x_5Mx7f9irVfnzfd8-22" value="" style="shape=tableRow;horizontal=0;startSize=0;swimlaneHead=0;swimlaneBody=0;top=0;left=0;bottom=0;right=0;collapsible=0;dropTarget=0;fillColor=none;points=[[0,0.5],[1,0.5]];portConstraint=eastwest;strokeColor=inherit;fontSize=16;" parent="dE-x_5Mx7f9irVfnzfd8-11" vertex="1">
          <mxGeometry y="150" width="340" height="30" as="geometry" />
        </mxCell>
        <mxCell id="dE-x_5Mx7f9irVfnzfd8-23" value="" style="shape=partialRectangle;html=1;whiteSpace=wrap;connectable=0;fillColor=none;top=0;left=0;bottom=0;right=0;overflow=hidden;strokeColor=inherit;fontSize=14;" parent="dE-x_5Mx7f9irVfnzfd8-22" vertex="1">
          <mxGeometry width="64" height="30" as="geometry">
            <mxRectangle width="64" height="30" as="alternateBounds" />
          </mxGeometry>
        </mxCell>
        <mxCell id="dE-x_5Mx7f9irVfnzfd8-24" value="Email nvarchar(32) NOT NULL" style="shape=partialRectangle;html=1;whiteSpace=wrap;connectable=0;fillColor=none;top=0;left=0;bottom=0;right=0;align=left;spacingLeft=6;overflow=hidden;strokeColor=inherit;fontSize=14;" parent="dE-x_5Mx7f9irVfnzfd8-22" vertex="1">
          <mxGeometry x="64" width="276" height="30" as="geometry">
            <mxRectangle width="276" height="30" as="alternateBounds" />
          </mxGeometry>
        </mxCell>
        <mxCell id="dE-x_5Mx7f9irVfnzfd8-77" style="shape=tableRow;horizontal=0;startSize=0;swimlaneHead=0;swimlaneBody=0;top=0;left=0;bottom=0;right=0;collapsible=0;dropTarget=0;fillColor=none;points=[[0,0.5],[1,0.5]];portConstraint=eastwest;strokeColor=inherit;fontSize=16;" parent="dE-x_5Mx7f9irVfnzfd8-11" vertex="1">
          <mxGeometry y="180" width="340" height="30" as="geometry" />
        </mxCell>
        <mxCell id="dE-x_5Mx7f9irVfnzfd8-78" style="shape=partialRectangle;html=1;whiteSpace=wrap;connectable=0;fillColor=none;top=0;left=0;bottom=0;right=0;overflow=hidden;strokeColor=inherit;fontSize=16;" parent="dE-x_5Mx7f9irVfnzfd8-77" vertex="1">
          <mxGeometry width="64" height="30" as="geometry">
            <mxRectangle width="64" height="30" as="alternateBounds" />
          </mxGeometry>
        </mxCell>
        <mxCell id="dE-x_5Mx7f9irVfnzfd8-79" value="BirthDate date NOT NULL" style="shape=partialRectangle;html=1;whiteSpace=wrap;connectable=0;fillColor=none;top=0;left=0;bottom=0;right=0;align=left;spacingLeft=6;overflow=hidden;strokeColor=inherit;fontSize=14;" parent="dE-x_5Mx7f9irVfnzfd8-77" vertex="1">
          <mxGeometry x="64" width="276" height="30" as="geometry">
            <mxRectangle width="276" height="30" as="alternateBounds" />
          </mxGeometry>
        </mxCell>
        <mxCell id="dE-x_5Mx7f9irVfnzfd8-89" style="shape=tableRow;horizontal=0;startSize=0;swimlaneHead=0;swimlaneBody=0;top=0;left=0;bottom=0;right=0;collapsible=0;dropTarget=0;fillColor=none;points=[[0,0.5],[1,0.5]];portConstraint=eastwest;strokeColor=inherit;fontSize=16;" parent="dE-x_5Mx7f9irVfnzfd8-11" vertex="1">
          <mxGeometry y="210" width="340" height="30" as="geometry" />
        </mxCell>
        <mxCell id="dE-x_5Mx7f9irVfnzfd8-90" style="shape=partialRectangle;html=1;whiteSpace=wrap;connectable=0;fillColor=none;top=0;left=0;bottom=0;right=0;overflow=hidden;strokeColor=inherit;fontSize=16;" parent="dE-x_5Mx7f9irVfnzfd8-89" vertex="1">
          <mxGeometry width="64" height="30" as="geometry">
            <mxRectangle width="64" height="30" as="alternateBounds" />
          </mxGeometry>
        </mxCell>
        <mxCell id="dE-x_5Mx7f9irVfnzfd8-91" value="Passport nchar(10) NOT NULL" style="shape=partialRectangle;html=1;whiteSpace=wrap;connectable=0;fillColor=none;top=0;left=0;bottom=0;right=0;align=left;spacingLeft=6;overflow=hidden;strokeColor=inherit;fontSize=14;" parent="dE-x_5Mx7f9irVfnzfd8-89" vertex="1">
          <mxGeometry x="64" width="276" height="30" as="geometry">
            <mxRectangle width="276" height="30" as="alternateBounds" />
          </mxGeometry>
        </mxCell>
        <mxCell id="dE-x_5Mx7f9irVfnzfd8-162" style="shape=tableRow;horizontal=0;startSize=0;swimlaneHead=0;swimlaneBody=0;top=0;left=0;bottom=0;right=0;collapsible=0;dropTarget=0;fillColor=none;points=[[0,0.5],[1,0.5]];portConstraint=eastwest;strokeColor=inherit;fontSize=16;" parent="dE-x_5Mx7f9irVfnzfd8-11" vertex="1">
          <mxGeometry y="240" width="340" height="30" as="geometry" />
        </mxCell>
        <mxCell id="dE-x_5Mx7f9irVfnzfd8-163" style="shape=partialRectangle;html=1;whiteSpace=wrap;connectable=0;fillColor=none;top=0;left=0;bottom=0;right=0;overflow=hidden;strokeColor=inherit;fontSize=16;" parent="dE-x_5Mx7f9irVfnzfd8-162" vertex="1">
          <mxGeometry width="64" height="30" as="geometry">
            <mxRectangle width="64" height="30" as="alternateBounds" />
          </mxGeometry>
        </mxCell>
        <mxCell id="dE-x_5Mx7f9irVfnzfd8-164" value="Address nvarchar(256) NOT NULL" style="shape=partialRectangle;html=1;whiteSpace=wrap;connectable=0;fillColor=none;top=0;left=0;bottom=0;right=0;align=left;spacingLeft=6;overflow=hidden;strokeColor=inherit;fontSize=14;" parent="dE-x_5Mx7f9irVfnzfd8-162" vertex="1">
          <mxGeometry x="64" width="276" height="30" as="geometry">
            <mxRectangle width="276" height="30" as="alternateBounds" />
          </mxGeometry>
        </mxCell>
        <mxCell id="dE-x_5Mx7f9irVfnzfd8-173" style="shape=tableRow;horizontal=0;startSize=0;swimlaneHead=0;swimlaneBody=0;top=0;left=0;bottom=0;right=0;collapsible=0;dropTarget=0;fillColor=none;points=[[0,0.5],[1,0.5]];portConstraint=eastwest;strokeColor=inherit;fontSize=16;" parent="dE-x_5Mx7f9irVfnzfd8-11" vertex="1">
          <mxGeometry y="270" width="340" height="30" as="geometry" />
        </mxCell>
        <mxCell id="dE-x_5Mx7f9irVfnzfd8-174" style="shape=partialRectangle;html=1;whiteSpace=wrap;connectable=0;fillColor=none;top=0;left=0;bottom=0;right=0;overflow=hidden;strokeColor=inherit;fontSize=16;" parent="dE-x_5Mx7f9irVfnzfd8-173" vertex="1">
          <mxGeometry width="64" height="30" as="geometry">
            <mxRectangle width="64" height="30" as="alternateBounds" />
          </mxGeometry>
        </mxCell>
        <mxCell id="dE-x_5Mx7f9irVfnzfd8-175" value="Password nvarchar(32) NOT NULL" style="shape=partialRectangle;html=1;whiteSpace=wrap;connectable=0;fillColor=none;top=0;left=0;bottom=0;right=0;align=left;spacingLeft=6;overflow=hidden;strokeColor=inherit;fontSize=14;" parent="dE-x_5Mx7f9irVfnzfd8-173" vertex="1">
          <mxGeometry x="64" width="276" height="30" as="geometry">
            <mxRectangle width="276" height="30" as="alternateBounds" />
          </mxGeometry>
        </mxCell>
        <mxCell id="dE-x_5Mx7f9irVfnzfd8-38" value="Order" style="shape=table;startSize=30;container=1;collapsible=0;childLayout=tableLayout;fixedRows=1;rowLines=0;fontStyle=0;strokeColor=default;fontSize=14;" parent="WIyWlLk6GJQsqaUBKTNV-1" vertex="1">
          <mxGeometry x="60" y="40" width="330" height="210" as="geometry" />
        </mxCell>
        <mxCell id="dE-x_5Mx7f9irVfnzfd8-176" style="shape=tableRow;horizontal=0;startSize=0;swimlaneHead=0;swimlaneBody=0;top=0;left=0;bottom=0;right=0;collapsible=0;dropTarget=0;fillColor=none;points=[[0,0.5],[1,0.5]];portConstraint=eastwest;strokeColor=inherit;fontSize=16;" parent="dE-x_5Mx7f9irVfnzfd8-38" vertex="1">
          <mxGeometry y="30" width="330" height="30" as="geometry" />
        </mxCell>
        <mxCell id="dE-x_5Mx7f9irVfnzfd8-177" value="PK" style="shape=partialRectangle;html=1;whiteSpace=wrap;connectable=0;fillColor=none;top=0;left=0;bottom=0;right=0;overflow=hidden;strokeColor=inherit;fontSize=14;" parent="dE-x_5Mx7f9irVfnzfd8-176" vertex="1">
          <mxGeometry width="64" height="30" as="geometry">
            <mxRectangle width="64" height="30" as="alternateBounds" />
          </mxGeometry>
        </mxCell>
        <mxCell id="dE-x_5Mx7f9irVfnzfd8-178" value="ID int NOT NULL" style="shape=partialRectangle;html=1;whiteSpace=wrap;connectable=0;fillColor=none;top=0;left=0;bottom=0;right=0;align=left;spacingLeft=6;overflow=hidden;strokeColor=inherit;fontSize=14;" parent="dE-x_5Mx7f9irVfnzfd8-176" vertex="1">
          <mxGeometry x="64" width="266" height="30" as="geometry">
            <mxRectangle width="266" height="30" as="alternateBounds" />
          </mxGeometry>
        </mxCell>
        <mxCell id="dE-x_5Mx7f9irVfnzfd8-45" value="" style="shape=tableRow;horizontal=0;startSize=0;swimlaneHead=0;swimlaneBody=0;top=0;left=0;bottom=0;right=0;collapsible=0;dropTarget=0;fillColor=none;points=[[0,0.5],[1,0.5]];portConstraint=eastwest;strokeColor=inherit;fontSize=16;" parent="dE-x_5Mx7f9irVfnzfd8-38" vertex="1">
          <mxGeometry y="60" width="330" height="30" as="geometry" />
        </mxCell>
        <mxCell id="dE-x_5Mx7f9irVfnzfd8-46" value="FK" style="shape=partialRectangle;html=1;whiteSpace=wrap;connectable=0;fillColor=none;top=0;left=0;bottom=0;right=0;overflow=hidden;strokeColor=inherit;fontSize=14;" parent="dE-x_5Mx7f9irVfnzfd8-45" vertex="1">
          <mxGeometry width="64" height="30" as="geometry">
            <mxRectangle width="64" height="30" as="alternateBounds" />
          </mxGeometry>
        </mxCell>
        <mxCell id="dE-x_5Mx7f9irVfnzfd8-47" value="CustomerID int NOT NULL" style="shape=partialRectangle;html=1;whiteSpace=wrap;connectable=0;fillColor=none;top=0;left=0;bottom=0;right=0;align=left;spacingLeft=6;overflow=hidden;strokeColor=inherit;fontSize=14;" parent="dE-x_5Mx7f9irVfnzfd8-45" vertex="1">
          <mxGeometry x="64" width="266" height="30" as="geometry">
            <mxRectangle width="266" height="30" as="alternateBounds" />
          </mxGeometry>
        </mxCell>
        <mxCell id="dE-x_5Mx7f9irVfnzfd8-48" value="" style="shape=tableRow;horizontal=0;startSize=0;swimlaneHead=0;swimlaneBody=0;top=0;left=0;bottom=0;right=0;collapsible=0;dropTarget=0;fillColor=none;points=[[0,0.5],[1,0.5]];portConstraint=eastwest;strokeColor=inherit;fontSize=16;" parent="dE-x_5Mx7f9irVfnzfd8-38" vertex="1">
          <mxGeometry y="90" width="330" height="30" as="geometry" />
        </mxCell>
        <mxCell id="dE-x_5Mx7f9irVfnzfd8-49" value="" style="shape=partialRectangle;html=1;whiteSpace=wrap;connectable=0;fillColor=none;top=0;left=0;bottom=0;right=0;overflow=hidden;strokeColor=inherit;fontSize=14;" parent="dE-x_5Mx7f9irVfnzfd8-48" vertex="1">
          <mxGeometry width="64" height="30" as="geometry">
            <mxRectangle width="64" height="30" as="alternateBounds" />
          </mxGeometry>
        </mxCell>
        <mxCell id="dE-x_5Mx7f9irVfnzfd8-50" value="CreationDate datetime NOT NULL" style="shape=partialRectangle;html=1;whiteSpace=wrap;connectable=0;fillColor=none;top=0;left=0;bottom=0;right=0;align=left;spacingLeft=6;overflow=hidden;strokeColor=inherit;fontSize=14;" parent="dE-x_5Mx7f9irVfnzfd8-48" vertex="1">
          <mxGeometry x="64" width="266" height="30" as="geometry">
            <mxRectangle width="266" height="30" as="alternateBounds" />
          </mxGeometry>
        </mxCell>
        <mxCell id="dE-x_5Mx7f9irVfnzfd8-156" style="shape=tableRow;horizontal=0;startSize=0;swimlaneHead=0;swimlaneBody=0;top=0;left=0;bottom=0;right=0;collapsible=0;dropTarget=0;fillColor=none;points=[[0,0.5],[1,0.5]];portConstraint=eastwest;strokeColor=inherit;fontSize=16;" parent="dE-x_5Mx7f9irVfnzfd8-38" vertex="1">
          <mxGeometry y="120" width="330" height="30" as="geometry" />
        </mxCell>
        <mxCell id="dE-x_5Mx7f9irVfnzfd8-157" style="shape=partialRectangle;html=1;whiteSpace=wrap;connectable=0;fillColor=none;top=0;left=0;bottom=0;right=0;overflow=hidden;strokeColor=inherit;fontSize=16;" parent="dE-x_5Mx7f9irVfnzfd8-156" vertex="1">
          <mxGeometry width="64" height="30" as="geometry">
            <mxRectangle width="64" height="30" as="alternateBounds" />
          </mxGeometry>
        </mxCell>
        <mxCell id="dE-x_5Mx7f9irVfnzfd8-158" value="CloseDate datetime NULL" style="shape=partialRectangle;html=1;whiteSpace=wrap;connectable=0;fillColor=none;top=0;left=0;bottom=0;right=0;align=left;spacingLeft=6;overflow=hidden;strokeColor=inherit;fontSize=14;" parent="dE-x_5Mx7f9irVfnzfd8-156" vertex="1">
          <mxGeometry x="64" width="266" height="30" as="geometry">
            <mxRectangle width="266" height="30" as="alternateBounds" />
          </mxGeometry>
        </mxCell>
        <mxCell id="dE-x_5Mx7f9irVfnzfd8-159" style="shape=tableRow;horizontal=0;startSize=0;swimlaneHead=0;swimlaneBody=0;top=0;left=0;bottom=0;right=0;collapsible=0;dropTarget=0;fillColor=none;points=[[0,0.5],[1,0.5]];portConstraint=eastwest;strokeColor=inherit;fontSize=16;" parent="dE-x_5Mx7f9irVfnzfd8-38" vertex="1">
          <mxGeometry y="150" width="330" height="30" as="geometry" />
        </mxCell>
        <mxCell id="dE-x_5Mx7f9irVfnzfd8-160" style="shape=partialRectangle;html=1;whiteSpace=wrap;connectable=0;fillColor=none;top=0;left=0;bottom=0;right=0;overflow=hidden;strokeColor=inherit;fontSize=16;" parent="dE-x_5Mx7f9irVfnzfd8-159" vertex="1">
          <mxGeometry width="64" height="30" as="geometry">
            <mxRectangle width="64" height="30" as="alternateBounds" />
          </mxGeometry>
        </mxCell>
        <mxCell id="dE-x_5Mx7f9irVfnzfd8-161" value="OrderMinutes bigint NOT NULL" style="shape=partialRectangle;html=1;whiteSpace=wrap;connectable=0;fillColor=none;top=0;left=0;bottom=0;right=0;align=left;spacingLeft=6;overflow=hidden;strokeColor=inherit;fontSize=14;" parent="dE-x_5Mx7f9irVfnzfd8-159" vertex="1">
          <mxGeometry x="64" width="266" height="30" as="geometry">
            <mxRectangle width="266" height="30" as="alternateBounds" />
          </mxGeometry>
        </mxCell>
        <mxCell id="dE-x_5Mx7f9irVfnzfd8-165" style="shape=tableRow;horizontal=0;startSize=0;swimlaneHead=0;swimlaneBody=0;top=0;left=0;bottom=0;right=0;collapsible=0;dropTarget=0;fillColor=none;points=[[0,0.5],[1,0.5]];portConstraint=eastwest;strokeColor=inherit;fontSize=16;" parent="dE-x_5Mx7f9irVfnzfd8-38" vertex="1">
          <mxGeometry y="180" width="330" height="30" as="geometry" />
        </mxCell>
        <mxCell id="dE-x_5Mx7f9irVfnzfd8-166" value="FK" style="shape=partialRectangle;html=1;whiteSpace=wrap;connectable=0;fillColor=none;top=0;left=0;bottom=0;right=0;overflow=hidden;strokeColor=inherit;fontSize=14;" parent="dE-x_5Mx7f9irVfnzfd8-165" vertex="1">
          <mxGeometry width="64" height="30" as="geometry">
            <mxRectangle width="64" height="30" as="alternateBounds" />
          </mxGeometry>
        </mxCell>
        <mxCell id="dE-x_5Mx7f9irVfnzfd8-167" value="OrderStatusID int NOT NULL" style="shape=partialRectangle;html=1;whiteSpace=wrap;connectable=0;fillColor=none;top=0;left=0;bottom=0;right=0;align=left;spacingLeft=6;overflow=hidden;strokeColor=inherit;fontSize=14;" parent="dE-x_5Mx7f9irVfnzfd8-165" vertex="1">
          <mxGeometry x="64" width="266" height="30" as="geometry">
            <mxRectangle width="266" height="30" as="alternateBounds" />
          </mxGeometry>
        </mxCell>
        <mxCell id="dE-x_5Mx7f9irVfnzfd8-51" value="Service" style="shape=table;startSize=30;container=1;collapsible=0;childLayout=tableLayout;fixedRows=1;rowLines=0;fontStyle=0;strokeColor=default;fontSize=14;" parent="WIyWlLk6GJQsqaUBKTNV-1" vertex="1">
          <mxGeometry x="440" y="360" width="320" height="150" as="geometry" />
        </mxCell>
        <mxCell id="dE-x_5Mx7f9irVfnzfd8-52" value="" style="shape=tableRow;horizontal=0;startSize=0;swimlaneHead=0;swimlaneBody=0;top=0;left=0;bottom=0;right=0;collapsible=0;dropTarget=0;fillColor=none;points=[[0,0.5],[1,0.5]];portConstraint=eastwest;strokeColor=inherit;fontSize=16;" parent="dE-x_5Mx7f9irVfnzfd8-51" vertex="1">
          <mxGeometry y="30" width="320" height="30" as="geometry" />
        </mxCell>
        <mxCell id="dE-x_5Mx7f9irVfnzfd8-53" value="PK" style="shape=partialRectangle;html=1;whiteSpace=wrap;connectable=0;fillColor=none;top=0;left=0;bottom=0;right=0;overflow=hidden;pointerEvents=1;strokeColor=inherit;fontSize=14;" parent="dE-x_5Mx7f9irVfnzfd8-52" vertex="1">
          <mxGeometry width="64" height="30" as="geometry">
            <mxRectangle width="64" height="30" as="alternateBounds" />
          </mxGeometry>
        </mxCell>
        <mxCell id="dE-x_5Mx7f9irVfnzfd8-54" value="ID int NOT NULL" style="shape=partialRectangle;html=1;whiteSpace=wrap;connectable=0;fillColor=none;top=0;left=0;bottom=0;right=0;align=left;spacingLeft=6;overflow=hidden;strokeColor=inherit;fontSize=14;" parent="dE-x_5Mx7f9irVfnzfd8-52" vertex="1">
          <mxGeometry x="64" width="256" height="30" as="geometry">
            <mxRectangle width="256" height="30" as="alternateBounds" />
          </mxGeometry>
        </mxCell>
        <mxCell id="dE-x_5Mx7f9irVfnzfd8-55" value="" style="shape=tableRow;horizontal=0;startSize=0;swimlaneHead=0;swimlaneBody=0;top=0;left=0;bottom=0;right=0;collapsible=0;dropTarget=0;fillColor=none;points=[[0,0.5],[1,0.5]];portConstraint=eastwest;strokeColor=inherit;fontSize=16;" parent="dE-x_5Mx7f9irVfnzfd8-51" vertex="1">
          <mxGeometry y="60" width="320" height="30" as="geometry" />
        </mxCell>
        <mxCell id="dE-x_5Mx7f9irVfnzfd8-56" value="" style="shape=partialRectangle;html=1;whiteSpace=wrap;connectable=0;fillColor=none;top=0;left=0;bottom=0;right=0;overflow=hidden;strokeColor=inherit;fontSize=14;" parent="dE-x_5Mx7f9irVfnzfd8-55" vertex="1">
          <mxGeometry width="64" height="30" as="geometry">
            <mxRectangle width="64" height="30" as="alternateBounds" />
          </mxGeometry>
        </mxCell>
        <mxCell id="dE-x_5Mx7f9irVfnzfd8-57" value="Name nvarchar(64) NOT NULL" style="shape=partialRectangle;html=1;whiteSpace=wrap;connectable=0;fillColor=none;top=0;left=0;bottom=0;right=0;align=left;spacingLeft=6;overflow=hidden;strokeColor=inherit;fontSize=14;" parent="dE-x_5Mx7f9irVfnzfd8-55" vertex="1">
          <mxGeometry x="64" width="256" height="30" as="geometry">
            <mxRectangle width="256" height="30" as="alternateBounds" />
          </mxGeometry>
        </mxCell>
        <mxCell id="dE-x_5Mx7f9irVfnzfd8-58" value="" style="shape=tableRow;horizontal=0;startSize=0;swimlaneHead=0;swimlaneBody=0;top=0;left=0;bottom=0;right=0;collapsible=0;dropTarget=0;fillColor=none;points=[[0,0.5],[1,0.5]];portConstraint=eastwest;strokeColor=inherit;fontSize=16;" parent="dE-x_5Mx7f9irVfnzfd8-51" vertex="1">
          <mxGeometry y="90" width="320" height="30" as="geometry" />
        </mxCell>
        <mxCell id="dE-x_5Mx7f9irVfnzfd8-59" value="" style="shape=partialRectangle;html=1;whiteSpace=wrap;connectable=0;fillColor=none;top=0;left=0;bottom=0;right=0;overflow=hidden;strokeColor=inherit;fontSize=14;" parent="dE-x_5Mx7f9irVfnzfd8-58" vertex="1">
          <mxGeometry width="64" height="30" as="geometry">
            <mxRectangle width="64" height="30" as="alternateBounds" />
          </mxGeometry>
        </mxCell>
        <mxCell id="dE-x_5Mx7f9irVfnzfd8-60" value="Code nvarchar(20) NOT NULL" style="shape=partialRectangle;html=1;whiteSpace=wrap;connectable=0;fillColor=none;top=0;left=0;bottom=0;right=0;align=left;spacingLeft=6;overflow=hidden;strokeColor=inherit;fontSize=14;" parent="dE-x_5Mx7f9irVfnzfd8-58" vertex="1">
          <mxGeometry x="64" width="256" height="30" as="geometry">
            <mxRectangle width="256" height="30" as="alternateBounds" />
          </mxGeometry>
        </mxCell>
        <mxCell id="dE-x_5Mx7f9irVfnzfd8-61" value="" style="shape=tableRow;horizontal=0;startSize=0;swimlaneHead=0;swimlaneBody=0;top=0;left=0;bottom=0;right=0;collapsible=0;dropTarget=0;fillColor=none;points=[[0,0.5],[1,0.5]];portConstraint=eastwest;strokeColor=inherit;fontSize=16;" parent="dE-x_5Mx7f9irVfnzfd8-51" vertex="1">
          <mxGeometry y="120" width="320" height="30" as="geometry" />
        </mxCell>
        <mxCell id="dE-x_5Mx7f9irVfnzfd8-62" value="" style="shape=partialRectangle;html=1;whiteSpace=wrap;connectable=0;fillColor=none;top=0;left=0;bottom=0;right=0;overflow=hidden;strokeColor=inherit;fontSize=16;" parent="dE-x_5Mx7f9irVfnzfd8-61" vertex="1">
          <mxGeometry width="64" height="30" as="geometry">
            <mxRectangle width="64" height="30" as="alternateBounds" />
          </mxGeometry>
        </mxCell>
        <mxCell id="dE-x_5Mx7f9irVfnzfd8-63" value="PriceForMinute float NOT NULL" style="shape=partialRectangle;html=1;whiteSpace=wrap;connectable=0;fillColor=none;top=0;left=0;bottom=0;right=0;align=left;spacingLeft=6;overflow=hidden;strokeColor=inherit;fontSize=14;" parent="dE-x_5Mx7f9irVfnzfd8-61" vertex="1">
          <mxGeometry x="64" width="256" height="30" as="geometry">
            <mxRectangle width="256" height="30" as="alternateBounds" />
          </mxGeometry>
        </mxCell>
        <mxCell id="dE-x_5Mx7f9irVfnzfd8-64" value="ServiceByOrder" style="shape=table;startSize=30;container=1;collapsible=0;childLayout=tableLayout;fixedRows=1;rowLines=0;fontStyle=0;strokeColor=default;fontSize=14;" parent="WIyWlLk6GJQsqaUBKTNV-1" vertex="1">
          <mxGeometry x="60" y="390" width="250" height="120" as="geometry" />
        </mxCell>
        <mxCell id="dE-x_5Mx7f9irVfnzfd8-179" style="shape=tableRow;horizontal=0;startSize=0;swimlaneHead=0;swimlaneBody=0;top=0;left=0;bottom=0;right=0;collapsible=0;dropTarget=0;fillColor=none;points=[[0,0.5],[1,0.5]];portConstraint=eastwest;strokeColor=inherit;fontSize=16;" parent="dE-x_5Mx7f9irVfnzfd8-64" vertex="1">
          <mxGeometry y="30" width="250" height="30" as="geometry" />
        </mxCell>
        <mxCell id="dE-x_5Mx7f9irVfnzfd8-180" value="PK" style="shape=partialRectangle;html=1;whiteSpace=wrap;connectable=0;fillColor=none;top=0;left=0;bottom=0;right=0;overflow=hidden;pointerEvents=1;strokeColor=inherit;fontSize=14;" parent="dE-x_5Mx7f9irVfnzfd8-179" vertex="1">
          <mxGeometry width="64" height="30" as="geometry">
            <mxRectangle width="64" height="30" as="alternateBounds" />
          </mxGeometry>
        </mxCell>
        <mxCell id="dE-x_5Mx7f9irVfnzfd8-181" value="ID int NOT NULL" style="shape=partialRectangle;html=1;whiteSpace=wrap;connectable=0;fillColor=none;top=0;left=0;bottom=0;right=0;align=left;spacingLeft=6;overflow=hidden;strokeColor=inherit;fontSize=14;" parent="dE-x_5Mx7f9irVfnzfd8-179" vertex="1">
          <mxGeometry x="64" width="186" height="30" as="geometry">
            <mxRectangle width="186" height="30" as="alternateBounds" />
          </mxGeometry>
        </mxCell>
        <mxCell id="dE-x_5Mx7f9irVfnzfd8-65" value="" style="shape=tableRow;horizontal=0;startSize=0;swimlaneHead=0;swimlaneBody=0;top=0;left=0;bottom=0;right=0;collapsible=0;dropTarget=0;fillColor=none;points=[[0,0.5],[1,0.5]];portConstraint=eastwest;strokeColor=inherit;fontSize=16;" parent="dE-x_5Mx7f9irVfnzfd8-64" vertex="1">
          <mxGeometry y="60" width="250" height="30" as="geometry" />
        </mxCell>
        <mxCell id="dE-x_5Mx7f9irVfnzfd8-66" value="FK" style="shape=partialRectangle;html=1;whiteSpace=wrap;connectable=0;fillColor=none;top=0;left=0;bottom=0;right=0;overflow=hidden;pointerEvents=1;strokeColor=inherit;fontSize=14;" parent="dE-x_5Mx7f9irVfnzfd8-65" vertex="1">
          <mxGeometry width="64" height="30" as="geometry">
            <mxRectangle width="64" height="30" as="alternateBounds" />
          </mxGeometry>
        </mxCell>
        <mxCell id="dE-x_5Mx7f9irVfnzfd8-67" value="OrderID int NOT NULL" style="shape=partialRectangle;html=1;whiteSpace=wrap;connectable=0;fillColor=none;top=0;left=0;bottom=0;right=0;align=left;spacingLeft=6;overflow=hidden;strokeColor=inherit;fontSize=14;" parent="dE-x_5Mx7f9irVfnzfd8-65" vertex="1">
          <mxGeometry x="64" width="186" height="30" as="geometry">
            <mxRectangle width="186" height="30" as="alternateBounds" />
          </mxGeometry>
        </mxCell>
        <mxCell id="dE-x_5Mx7f9irVfnzfd8-68" value="" style="shape=tableRow;horizontal=0;startSize=0;swimlaneHead=0;swimlaneBody=0;top=0;left=0;bottom=0;right=0;collapsible=0;dropTarget=0;fillColor=none;points=[[0,0.5],[1,0.5]];portConstraint=eastwest;strokeColor=inherit;fontSize=16;" parent="dE-x_5Mx7f9irVfnzfd8-64" vertex="1">
          <mxGeometry y="90" width="250" height="30" as="geometry" />
        </mxCell>
        <mxCell id="dE-x_5Mx7f9irVfnzfd8-69" value="FK" style="shape=partialRectangle;html=1;whiteSpace=wrap;connectable=0;fillColor=none;top=0;left=0;bottom=0;right=0;overflow=hidden;strokeColor=inherit;fontSize=14;" parent="dE-x_5Mx7f9irVfnzfd8-68" vertex="1">
          <mxGeometry width="64" height="30" as="geometry">
            <mxRectangle width="64" height="30" as="alternateBounds" />
          </mxGeometry>
        </mxCell>
        <mxCell id="dE-x_5Mx7f9irVfnzfd8-70" value="ServiceID int NOT NULL" style="shape=partialRectangle;html=1;whiteSpace=wrap;connectable=0;fillColor=none;top=0;left=0;bottom=0;right=0;align=left;spacingLeft=6;overflow=hidden;strokeColor=inherit;fontSize=14;" parent="dE-x_5Mx7f9irVfnzfd8-68" vertex="1">
          <mxGeometry x="64" width="186" height="30" as="geometry">
            <mxRectangle width="186" height="30" as="alternateBounds" />
          </mxGeometry>
        </mxCell>
        <mxCell id="dE-x_5Mx7f9irVfnzfd8-105" value="Role" style="shape=table;startSize=30;container=1;collapsible=0;childLayout=tableLayout;fixedRows=1;rowLines=0;fontStyle=0;strokeColor=default;fontSize=14;" parent="WIyWlLk6GJQsqaUBKTNV-1" vertex="1">
          <mxGeometry x="50" y="680" width="270" height="90" as="geometry" />
        </mxCell>
        <mxCell id="dE-x_5Mx7f9irVfnzfd8-106" value="" style="shape=tableRow;horizontal=0;startSize=0;swimlaneHead=0;swimlaneBody=0;top=0;left=0;bottom=0;right=0;collapsible=0;dropTarget=0;fillColor=none;points=[[0,0.5],[1,0.5]];portConstraint=eastwest;strokeColor=inherit;fontSize=16;" parent="dE-x_5Mx7f9irVfnzfd8-105" vertex="1">
          <mxGeometry y="30" width="270" height="30" as="geometry" />
        </mxCell>
        <mxCell id="dE-x_5Mx7f9irVfnzfd8-107" value="PK" style="shape=partialRectangle;html=1;whiteSpace=wrap;connectable=0;fillColor=none;top=0;left=0;bottom=0;right=0;overflow=hidden;pointerEvents=1;strokeColor=inherit;fontSize=14;" parent="dE-x_5Mx7f9irVfnzfd8-106" vertex="1">
          <mxGeometry width="60" height="30" as="geometry">
            <mxRectangle width="60" height="30" as="alternateBounds" />
          </mxGeometry>
        </mxCell>
        <mxCell id="dE-x_5Mx7f9irVfnzfd8-108" value="ID int NOT NULL" style="shape=partialRectangle;html=1;whiteSpace=wrap;connectable=0;fillColor=none;top=0;left=0;bottom=0;right=0;align=left;spacingLeft=6;overflow=hidden;strokeColor=inherit;fontSize=14;" parent="dE-x_5Mx7f9irVfnzfd8-106" vertex="1">
          <mxGeometry x="60" width="210" height="30" as="geometry">
            <mxRectangle width="210" height="30" as="alternateBounds" />
          </mxGeometry>
        </mxCell>
        <mxCell id="dE-x_5Mx7f9irVfnzfd8-109" value="" style="shape=tableRow;horizontal=0;startSize=0;swimlaneHead=0;swimlaneBody=0;top=0;left=0;bottom=0;right=0;collapsible=0;dropTarget=0;fillColor=none;points=[[0,0.5],[1,0.5]];portConstraint=eastwest;strokeColor=inherit;fontSize=16;" parent="dE-x_5Mx7f9irVfnzfd8-105" vertex="1">
          <mxGeometry y="60" width="270" height="30" as="geometry" />
        </mxCell>
        <mxCell id="dE-x_5Mx7f9irVfnzfd8-110" value="" style="shape=partialRectangle;html=1;whiteSpace=wrap;connectable=0;fillColor=none;top=0;left=0;bottom=0;right=0;overflow=hidden;strokeColor=inherit;fontSize=14;" parent="dE-x_5Mx7f9irVfnzfd8-109" vertex="1">
          <mxGeometry width="60" height="30" as="geometry">
            <mxRectangle width="60" height="30" as="alternateBounds" />
          </mxGeometry>
        </mxCell>
        <mxCell id="dE-x_5Mx7f9irVfnzfd8-111" value="Name nvarchar(32) NOT NULL" style="shape=partialRectangle;html=1;whiteSpace=wrap;connectable=0;fillColor=none;top=0;left=0;bottom=0;right=0;align=left;spacingLeft=6;overflow=hidden;strokeColor=inherit;fontSize=14;" parent="dE-x_5Mx7f9irVfnzfd8-109" vertex="1">
          <mxGeometry x="60" width="210" height="30" as="geometry">
            <mxRectangle width="210" height="30" as="alternateBounds" />
          </mxGeometry>
        </mxCell>
        <mxCell id="dE-x_5Mx7f9irVfnzfd8-119" style="edgeStyle=orthogonalEdgeStyle;rounded=0;orthogonalLoop=1;jettySize=auto;html=1;endArrow=ERone;endFill=0;startArrow=ERzeroToMany;startFill=0;" parent="WIyWlLk6GJQsqaUBKTNV-1" source="dE-x_5Mx7f9irVfnzfd8-45" target="dE-x_5Mx7f9irVfnzfd8-12" edge="1">
          <mxGeometry relative="1" as="geometry" />
        </mxCell>
        <mxCell id="dE-x_5Mx7f9irVfnzfd8-120" style="edgeStyle=orthogonalEdgeStyle;rounded=0;orthogonalLoop=1;jettySize=auto;html=1;" parent="WIyWlLk6GJQsqaUBKTNV-1" source="dE-x_5Mx7f9irVfnzfd8-65" edge="1">
          <mxGeometry relative="1" as="geometry" />
        </mxCell>
        <mxCell id="dE-x_5Mx7f9irVfnzfd8-121" style="edgeStyle=orthogonalEdgeStyle;rounded=0;orthogonalLoop=1;jettySize=auto;html=1;endArrow=ERone;endFill=0;startArrow=ERzeroToMany;startFill=0;" parent="WIyWlLk6GJQsqaUBKTNV-1" source="dE-x_5Mx7f9irVfnzfd8-68" target="dE-x_5Mx7f9irVfnzfd8-52" edge="1">
          <mxGeometry relative="1" as="geometry" />
        </mxCell>
        <mxCell id="dE-x_5Mx7f9irVfnzfd8-122" value="Employee" style="shape=table;startSize=30;container=1;collapsible=0;childLayout=tableLayout;fixedRows=1;rowLines=0;fontStyle=0;strokeColor=default;fontSize=14;" parent="WIyWlLk6GJQsqaUBKTNV-1" vertex="1">
          <mxGeometry x="400" y="530" width="340" height="240" as="geometry" />
        </mxCell>
        <mxCell id="dE-x_5Mx7f9irVfnzfd8-123" value="" style="shape=tableRow;horizontal=0;startSize=0;swimlaneHead=0;swimlaneBody=0;top=0;left=0;bottom=0;right=0;collapsible=0;dropTarget=0;fillColor=none;points=[[0,0.5],[1,0.5]];portConstraint=eastwest;strokeColor=inherit;fontSize=16;" parent="dE-x_5Mx7f9irVfnzfd8-122" vertex="1">
          <mxGeometry y="30" width="340" height="30" as="geometry" />
        </mxCell>
        <mxCell id="dE-x_5Mx7f9irVfnzfd8-124" value="PK" style="shape=partialRectangle;html=1;whiteSpace=wrap;connectable=0;fillColor=none;top=0;left=0;bottom=0;right=0;overflow=hidden;pointerEvents=1;strokeColor=inherit;fontSize=14;" parent="dE-x_5Mx7f9irVfnzfd8-123" vertex="1">
          <mxGeometry width="64" height="30" as="geometry">
            <mxRectangle width="64" height="30" as="alternateBounds" />
          </mxGeometry>
        </mxCell>
        <mxCell id="dE-x_5Mx7f9irVfnzfd8-125" value="ID int NOT NULL" style="shape=partialRectangle;html=1;whiteSpace=wrap;connectable=0;fillColor=none;top=0;left=0;bottom=0;right=0;align=left;spacingLeft=6;overflow=hidden;strokeColor=inherit;fontSize=14;" parent="dE-x_5Mx7f9irVfnzfd8-123" vertex="1">
          <mxGeometry x="64" width="276" height="30" as="geometry">
            <mxRectangle width="276" height="30" as="alternateBounds" />
          </mxGeometry>
        </mxCell>
        <mxCell id="dE-x_5Mx7f9irVfnzfd8-126" value="" style="shape=tableRow;horizontal=0;startSize=0;swimlaneHead=0;swimlaneBody=0;top=0;left=0;bottom=0;right=0;collapsible=0;dropTarget=0;fillColor=none;points=[[0,0.5],[1,0.5]];portConstraint=eastwest;strokeColor=inherit;fontSize=16;" parent="dE-x_5Mx7f9irVfnzfd8-122" vertex="1">
          <mxGeometry y="60" width="340" height="30" as="geometry" />
        </mxCell>
        <mxCell id="dE-x_5Mx7f9irVfnzfd8-127" value="" style="shape=partialRectangle;html=1;whiteSpace=wrap;connectable=0;fillColor=none;top=0;left=0;bottom=0;right=0;overflow=hidden;strokeColor=inherit;fontSize=14;" parent="dE-x_5Mx7f9irVfnzfd8-126" vertex="1">
          <mxGeometry width="64" height="30" as="geometry">
            <mxRectangle width="64" height="30" as="alternateBounds" />
          </mxGeometry>
        </mxCell>
        <mxCell id="dE-x_5Mx7f9irVfnzfd8-128" value="FirstName nvarchar(20) NOT NULL" style="shape=partialRectangle;html=1;whiteSpace=wrap;connectable=0;fillColor=none;top=0;left=0;bottom=0;right=0;align=left;spacingLeft=6;overflow=hidden;strokeColor=inherit;fontSize=14;" parent="dE-x_5Mx7f9irVfnzfd8-126" vertex="1">
          <mxGeometry x="64" width="276" height="30" as="geometry">
            <mxRectangle width="276" height="30" as="alternateBounds" />
          </mxGeometry>
        </mxCell>
        <mxCell id="dE-x_5Mx7f9irVfnzfd8-129" value="" style="shape=tableRow;horizontal=0;startSize=0;swimlaneHead=0;swimlaneBody=0;top=0;left=0;bottom=0;right=0;collapsible=0;dropTarget=0;fillColor=none;points=[[0,0.5],[1,0.5]];portConstraint=eastwest;strokeColor=inherit;fontSize=16;" parent="dE-x_5Mx7f9irVfnzfd8-122" vertex="1">
          <mxGeometry y="90" width="340" height="30" as="geometry" />
        </mxCell>
        <mxCell id="dE-x_5Mx7f9irVfnzfd8-130" value="" style="shape=partialRectangle;html=1;whiteSpace=wrap;connectable=0;fillColor=none;top=0;left=0;bottom=0;right=0;overflow=hidden;strokeColor=inherit;fontSize=16;" parent="dE-x_5Mx7f9irVfnzfd8-129" vertex="1">
          <mxGeometry width="64" height="30" as="geometry">
            <mxRectangle width="64" height="30" as="alternateBounds" />
          </mxGeometry>
        </mxCell>
        <mxCell id="dE-x_5Mx7f9irVfnzfd8-131" value="LastName nvarchar(20) NOT NULL" style="shape=partialRectangle;html=1;whiteSpace=wrap;connectable=0;fillColor=none;top=0;left=0;bottom=0;right=0;align=left;spacingLeft=6;overflow=hidden;strokeColor=inherit;fontSize=14;" parent="dE-x_5Mx7f9irVfnzfd8-129" vertex="1">
          <mxGeometry x="64" width="276" height="30" as="geometry">
            <mxRectangle width="276" height="30" as="alternateBounds" />
          </mxGeometry>
        </mxCell>
        <mxCell id="dE-x_5Mx7f9irVfnzfd8-132" style="shape=tableRow;horizontal=0;startSize=0;swimlaneHead=0;swimlaneBody=0;top=0;left=0;bottom=0;right=0;collapsible=0;dropTarget=0;fillColor=none;points=[[0,0.5],[1,0.5]];portConstraint=eastwest;strokeColor=inherit;fontSize=16;" parent="dE-x_5Mx7f9irVfnzfd8-122" vertex="1">
          <mxGeometry y="120" width="340" height="30" as="geometry" />
        </mxCell>
        <mxCell id="dE-x_5Mx7f9irVfnzfd8-133" style="shape=partialRectangle;html=1;whiteSpace=wrap;connectable=0;fillColor=none;top=0;left=0;bottom=0;right=0;overflow=hidden;strokeColor=inherit;fontSize=16;" parent="dE-x_5Mx7f9irVfnzfd8-132" vertex="1">
          <mxGeometry width="64" height="30" as="geometry">
            <mxRectangle width="64" height="30" as="alternateBounds" />
          </mxGeometry>
        </mxCell>
        <mxCell id="dE-x_5Mx7f9irVfnzfd8-134" value="MiddleName nvarchar(20) NULL" style="shape=partialRectangle;html=1;whiteSpace=wrap;connectable=0;fillColor=none;top=0;left=0;bottom=0;right=0;align=left;spacingLeft=6;overflow=hidden;strokeColor=inherit;fontSize=14;" parent="dE-x_5Mx7f9irVfnzfd8-132" vertex="1">
          <mxGeometry x="64" width="276" height="30" as="geometry">
            <mxRectangle width="276" height="30" as="alternateBounds" />
          </mxGeometry>
        </mxCell>
        <mxCell id="dE-x_5Mx7f9irVfnzfd8-135" value="" style="shape=tableRow;horizontal=0;startSize=0;swimlaneHead=0;swimlaneBody=0;top=0;left=0;bottom=0;right=0;collapsible=0;dropTarget=0;fillColor=none;points=[[0,0.5],[1,0.5]];portConstraint=eastwest;strokeColor=inherit;fontSize=16;" parent="dE-x_5Mx7f9irVfnzfd8-122" vertex="1">
          <mxGeometry y="150" width="340" height="30" as="geometry" />
        </mxCell>
        <mxCell id="dE-x_5Mx7f9irVfnzfd8-136" value="" style="shape=partialRectangle;html=1;whiteSpace=wrap;connectable=0;fillColor=none;top=0;left=0;bottom=0;right=0;overflow=hidden;strokeColor=inherit;fontSize=14;" parent="dE-x_5Mx7f9irVfnzfd8-135" vertex="1">
          <mxGeometry width="64" height="30" as="geometry">
            <mxRectangle width="64" height="30" as="alternateBounds" />
          </mxGeometry>
        </mxCell>
        <mxCell id="dE-x_5Mx7f9irVfnzfd8-137" value="Email nvarchar(32) NOT NULL" style="shape=partialRectangle;html=1;whiteSpace=wrap;connectable=0;fillColor=none;top=0;left=0;bottom=0;right=0;align=left;spacingLeft=6;overflow=hidden;strokeColor=inherit;fontSize=14;" parent="dE-x_5Mx7f9irVfnzfd8-135" vertex="1">
          <mxGeometry x="64" width="276" height="30" as="geometry">
            <mxRectangle width="276" height="30" as="alternateBounds" />
          </mxGeometry>
        </mxCell>
        <mxCell id="dE-x_5Mx7f9irVfnzfd8-138" style="shape=tableRow;horizontal=0;startSize=0;swimlaneHead=0;swimlaneBody=0;top=0;left=0;bottom=0;right=0;collapsible=0;dropTarget=0;fillColor=none;points=[[0,0.5],[1,0.5]];portConstraint=eastwest;strokeColor=inherit;fontSize=16;" parent="dE-x_5Mx7f9irVfnzfd8-122" vertex="1">
          <mxGeometry y="180" width="340" height="30" as="geometry" />
        </mxCell>
        <mxCell id="dE-x_5Mx7f9irVfnzfd8-139" style="shape=partialRectangle;html=1;whiteSpace=wrap;connectable=0;fillColor=none;top=0;left=0;bottom=0;right=0;overflow=hidden;strokeColor=inherit;fontSize=16;" parent="dE-x_5Mx7f9irVfnzfd8-138" vertex="1">
          <mxGeometry width="64" height="30" as="geometry">
            <mxRectangle width="64" height="30" as="alternateBounds" />
          </mxGeometry>
        </mxCell>
        <mxCell id="dE-x_5Mx7f9irVfnzfd8-140" value="Password nvarchar(32) NOT NULL" style="shape=partialRectangle;html=1;whiteSpace=wrap;connectable=0;fillColor=none;top=0;left=0;bottom=0;right=0;align=left;spacingLeft=6;overflow=hidden;strokeColor=inherit;fontSize=14;" parent="dE-x_5Mx7f9irVfnzfd8-138" vertex="1">
          <mxGeometry x="64" width="276" height="30" as="geometry">
            <mxRectangle width="276" height="30" as="alternateBounds" />
          </mxGeometry>
        </mxCell>
        <mxCell id="dE-x_5Mx7f9irVfnzfd8-141" style="shape=tableRow;horizontal=0;startSize=0;swimlaneHead=0;swimlaneBody=0;top=0;left=0;bottom=0;right=0;collapsible=0;dropTarget=0;fillColor=none;points=[[0,0.5],[1,0.5]];portConstraint=eastwest;strokeColor=inherit;fontSize=16;" parent="dE-x_5Mx7f9irVfnzfd8-122" vertex="1">
          <mxGeometry y="210" width="340" height="30" as="geometry" />
        </mxCell>
        <mxCell id="dE-x_5Mx7f9irVfnzfd8-142" value="FK" style="shape=partialRectangle;html=1;whiteSpace=wrap;connectable=0;fillColor=none;top=0;left=0;bottom=0;right=0;overflow=hidden;strokeColor=inherit;fontSize=14;" parent="dE-x_5Mx7f9irVfnzfd8-141" vertex="1">
          <mxGeometry width="64" height="30" as="geometry">
            <mxRectangle width="64" height="30" as="alternateBounds" />
          </mxGeometry>
        </mxCell>
        <mxCell id="dE-x_5Mx7f9irVfnzfd8-143" value="RoleID int NOT NULL" style="shape=partialRectangle;html=1;whiteSpace=wrap;connectable=0;fillColor=none;top=0;left=0;bottom=0;right=0;align=left;spacingLeft=6;overflow=hidden;strokeColor=inherit;fontSize=14;" parent="dE-x_5Mx7f9irVfnzfd8-141" vertex="1">
          <mxGeometry x="64" width="276" height="30" as="geometry">
            <mxRectangle width="276" height="30" as="alternateBounds" />
          </mxGeometry>
        </mxCell>
        <mxCell id="dE-x_5Mx7f9irVfnzfd8-147" style="edgeStyle=orthogonalEdgeStyle;rounded=0;orthogonalLoop=1;jettySize=auto;html=1;endArrow=ERone;endFill=0;startArrow=ERzeroToMany;startFill=0;" parent="WIyWlLk6GJQsqaUBKTNV-1" source="dE-x_5Mx7f9irVfnzfd8-2" target="dE-x_5Mx7f9irVfnzfd8-123" edge="1">
          <mxGeometry relative="1" as="geometry" />
        </mxCell>
        <mxCell id="dE-x_5Mx7f9irVfnzfd8-149" value="OrderStatus" style="shape=table;startSize=30;container=1;collapsible=0;childLayout=tableLayout;fixedRows=1;rowLines=0;fontStyle=0;strokeColor=default;fontSize=14;" parent="WIyWlLk6GJQsqaUBKTNV-1" vertex="1">
          <mxGeometry x="60" y="280" width="320" height="90" as="geometry" />
        </mxCell>
        <mxCell id="dE-x_5Mx7f9irVfnzfd8-150" value="" style="shape=tableRow;horizontal=0;startSize=0;swimlaneHead=0;swimlaneBody=0;top=0;left=0;bottom=0;right=0;collapsible=0;dropTarget=0;fillColor=none;points=[[0,0.5],[1,0.5]];portConstraint=eastwest;strokeColor=inherit;fontSize=16;" parent="dE-x_5Mx7f9irVfnzfd8-149" vertex="1">
          <mxGeometry y="30" width="320" height="30" as="geometry" />
        </mxCell>
        <mxCell id="dE-x_5Mx7f9irVfnzfd8-151" value="PK" style="shape=partialRectangle;html=1;whiteSpace=wrap;connectable=0;fillColor=none;top=0;left=0;bottom=0;right=0;overflow=hidden;pointerEvents=1;strokeColor=inherit;fontSize=14;" parent="dE-x_5Mx7f9irVfnzfd8-150" vertex="1">
          <mxGeometry width="64" height="30" as="geometry">
            <mxRectangle width="64" height="30" as="alternateBounds" />
          </mxGeometry>
        </mxCell>
        <mxCell id="dE-x_5Mx7f9irVfnzfd8-152" value="ID int NOT NULL" style="shape=partialRectangle;html=1;whiteSpace=wrap;connectable=0;fillColor=none;top=0;left=0;bottom=0;right=0;align=left;spacingLeft=6;overflow=hidden;strokeColor=inherit;fontSize=14;" parent="dE-x_5Mx7f9irVfnzfd8-150" vertex="1">
          <mxGeometry x="64" width="256" height="30" as="geometry">
            <mxRectangle width="256" height="30" as="alternateBounds" />
          </mxGeometry>
        </mxCell>
        <mxCell id="dE-x_5Mx7f9irVfnzfd8-153" value="" style="shape=tableRow;horizontal=0;startSize=0;swimlaneHead=0;swimlaneBody=0;top=0;left=0;bottom=0;right=0;collapsible=0;dropTarget=0;fillColor=none;points=[[0,0.5],[1,0.5]];portConstraint=eastwest;strokeColor=inherit;fontSize=16;" parent="dE-x_5Mx7f9irVfnzfd8-149" vertex="1">
          <mxGeometry y="60" width="320" height="30" as="geometry" />
        </mxCell>
        <mxCell id="dE-x_5Mx7f9irVfnzfd8-154" value="" style="shape=partialRectangle;html=1;whiteSpace=wrap;connectable=0;fillColor=none;top=0;left=0;bottom=0;right=0;overflow=hidden;strokeColor=inherit;fontSize=14;" parent="dE-x_5Mx7f9irVfnzfd8-153" vertex="1">
          <mxGeometry width="64" height="30" as="geometry">
            <mxRectangle width="64" height="30" as="alternateBounds" />
          </mxGeometry>
        </mxCell>
        <mxCell id="dE-x_5Mx7f9irVfnzfd8-155" value="Name nvarchar(16) NOT NULL" style="shape=partialRectangle;html=1;whiteSpace=wrap;connectable=0;fillColor=none;top=0;left=0;bottom=0;right=0;align=left;spacingLeft=6;overflow=hidden;strokeColor=inherit;fontSize=14;" parent="dE-x_5Mx7f9irVfnzfd8-153" vertex="1">
          <mxGeometry x="64" width="256" height="30" as="geometry">
            <mxRectangle width="256" height="30" as="alternateBounds" />
          </mxGeometry>
        </mxCell>
        <mxCell id="dE-x_5Mx7f9irVfnzfd8-168" style="edgeStyle=orthogonalEdgeStyle;rounded=0;orthogonalLoop=1;jettySize=auto;html=1;endArrow=ERone;endFill=0;startArrow=ERzeroToMany;startFill=0;" parent="WIyWlLk6GJQsqaUBKTNV-1" source="dE-x_5Mx7f9irVfnzfd8-165" target="dE-x_5Mx7f9irVfnzfd8-150" edge="1">
          <mxGeometry relative="1" as="geometry">
            <Array as="points">
              <mxPoint x="40" y="235" />
              <mxPoint x="40" y="325" />
            </Array>
          </mxGeometry>
        </mxCell>
        <mxCell id="dE-x_5Mx7f9irVfnzfd8-172" style="edgeStyle=orthogonalEdgeStyle;rounded=0;orthogonalLoop=1;jettySize=auto;html=1;endArrow=ERone;endFill=0;startArrow=ERzeroToMany;startFill=0;" parent="WIyWlLk6GJQsqaUBKTNV-1" source="dE-x_5Mx7f9irVfnzfd8-65" target="dE-x_5Mx7f9irVfnzfd8-45" edge="1">
          <mxGeometry relative="1" as="geometry">
            <Array as="points">
              <mxPoint x="20" y="465" />
              <mxPoint x="20" y="115" />
            </Array>
          </mxGeometry>
        </mxCell>
        <mxCell id="dE-x_5Mx7f9irVfnzfd8-148" style="edgeStyle=orthogonalEdgeStyle;rounded=0;orthogonalLoop=1;jettySize=auto;html=1;startArrow=ERone;startFill=0;endArrow=ERzeroToMany;endFill=0;" parent="WIyWlLk6GJQsqaUBKTNV-1" source="dE-x_5Mx7f9irVfnzfd8-106" target="dE-x_5Mx7f9irVfnzfd8-141" edge="1">
          <mxGeometry relative="1" as="geometry" />
        </mxCell>
      </root>
    </mxGraphModel>
  </diagram>
</mxfile>
